<svg version="1.2" xmlns="http://www.w3.org/2000/svg" viewBox="0 0 296 296" width="296" height="296">
	<title>graphics-svg</title>
	<style>
		.s0 { fill: #000000 } 
	</style>
	<filter id="f0">
		<feFlood flood-color="#ffffff" flood-opacity="1" />
		<feBlend mode="normal" in2="SourceGraphic"/>
		<feComposite in2="SourceAlpha" operator="in" />
	</filter>
	<g id="Layer" filter="url(#f0)">
		<g id="Layer">
			<g id="Layer">
				<path id="Layer" fill-rule="evenodd" class="s0" d="m266.7 142.9c0 7.8-6.4 14.2-14.3 14.2-7.9 0-14.3-6.4-14.3-14.2 0-7.9 6.4-14.3 14.3-14.3 7.9 0 14.3 6.4 14.3 14.3zm-9.6 0c0-2.7-2.1-4.8-4.7-4.8-2.6 0-4.8 2.1-4.8 4.8 0 2.6 2.2 4.7 4.8 4.7 2.6 0 4.7-2.1 4.7-4.7z"/>
				<path id="Layer" fill-rule="evenodd" class="s0" d="m190.5 123.8c0 26.3-21.4 47.6-47.6 47.6-26.3 0-47.7-21.3-47.7-47.6 0-26.2 21.4-47.6 47.7-47.6 26.2 0 47.6 21.4 47.6 47.6zm-33.4 23.8c0-7.9-6.4-14.3-14.2-14.3-7.9 0-14.3 6.4-14.3 14.3v11.5c4.4 1.8 9.2 2.8 14.3 2.8 5 0 9.8-1 14.2-2.8zm23.9-23.8c0-21-17.1-38.1-38.1-38.1-21 0-38.1 17.1-38.1 38.1 0 12 5.6 22.7 14.2 29.7v-5.9c0-9.7 5.9-18 14.2-21.7-5.6-3.4-9.4-9.4-9.4-16.4 0-10.5 8.6-19 19.1-19 10.5 0 19 8.5 19 19 0 7-3.8 13-9.4 16.4 8.3 3.7 14.2 12 14.2 21.7v5.9c8.7-7 14.3-17.7 14.3-29.7zm-38.1-4.8c5.2 0 9.5-4.2 9.5-9.5 0-5.2-4.3-9.5-9.5-9.5-5.3 0-9.6 4.3-9.6 9.5 0 5.3 4.3 9.5 9.6 9.5z"/>
				<path id="Layer" fill-rule="evenodd" class="s0" d="m138.1 197.6c0 6.6-5.3 11.9-11.9 11.9h-19.1c-6.5 0-11.9-5.3-11.9-11.9 0-6.5 5.4-11.9 11.9-11.9h19.1c6.6 0 11.9 5.4 11.9 11.9zm-9.5 0c0-1.3-1.1-2.4-2.4-2.4h-19.1c-1.3 0-2.3 1.1-2.3 2.4 0 1.3 1 2.4 2.3 2.4h19.1c1.3 0 2.4-1.1 2.4-2.4z"/>
				<path id="Layer" fill-rule="evenodd" class="s0" d="m190.5 197.6c0 6.6-5.4 11.9-11.9 11.9h-19.1c-6.5 0-11.9-5.3-11.9-11.9 0-6.5 5.4-11.9 11.9-11.9h19.1c6.5 0 11.9 5.4 11.9 11.9zm-9.5 0c0-1.3-1.1-2.4-2.4-2.4h-19.1c-1.3 0-2.4 1.1-2.4 2.4 0 1.3 1.1 2.4 2.4 2.4h19.1c1.3 0 2.4-1.1 2.4-2.4z"/>
				<path id="Layer" fill-rule="evenodd" class="s0" d="m90.5 228.6v52.3c0 2.7 2.1 4.8 4.7 4.8h128.6c2.6 0 4.8-2.1 4.8-4.8v-7.4c-2.8 1.7-6.1 2.7-9.6 2.7h-4.7v-38.1h4.7c10.6 0 19.1 8.5 19.1 19v23.9c0 1.6-0.3 3.2-0.9 4.7h24.7c2.6 0 4.8-2.1 4.8-4.7v-7.5c-2.8 1.7-6.1 2.7-9.6 2.7h-4.7v-38.1h4.7c10.5 0 19.1 8.5 19.1 19v23.9c0 7.8-6.4 14.2-14.3 14.2h-166.7c-7.8 0-14.2-6.4-14.2-14.2v-52.4h-14.3v9.5c0 6.2-4 11.4-9.6 13.4v43.7h-47.6v-43.7c-5.5-2-9.5-7.2-9.5-13.4v-47.6c0-6.2 4-11.5 9.5-13.4v-48.5h9.5v-57.2c0-7.8 6.5-14.3 14.3-14.3h139.8c-1.1-3.8-1.7-7.8-1.7-11.9 0-24.9 20.3-45.2 45.3-45.2h33.3c24.9 0 45.2 20.3 45.2 45.2 0 15.2-7.5 28.6-19 36.9v132.2c0 7.9-6.4 14.3-14.3 14.3zm176.2 28.5c0-3.5-1.9-6.6-4.8-8.2v16.5c2.9-1.7 4.8-4.7 4.8-8.3zm-38.1 0c0-3.5-1.9-6.6-4.8-8.2v16.5c2.9-1.7 4.8-4.7 4.8-8.3zm38.1-169.8c-5.2 2-10.8 3.2-16.7 3.2h-11.9v128.5h23.8c2.7 0 4.8-2.1 4.8-4.7zm-85.7-42c0 13.9 8.2 26.7 21 32.5l2.8 1.3v12l15.2-10.1h30c19.7 0 35.7-16 35.7-35.7 0-19.7-16-35.7-35.7-35.7h-33.3c-19.7 0-35.7 16-35.7 35.7zm-152.4 83.3h19v-61.9h-14.2c-2.7 0-4.8 2.1-4.8 4.8zm-9.5 47.6h28.5v-38.1h-28.5zm28.5 76.2h-28.5v33.3h28.5zm9.6-61.9c0-2.6-2.2-4.8-4.8-4.8h-38.1c-2.6 0-4.7 2.2-4.7 4.8v23.8c0-13.1 10.6-23.8 23.8-23.8 13.1 0 23.8 10.7 23.8 23.8 0 13.1-10.7 23.8-23.8 23.8-13.2 0-23.8-10.6-23.8-23.7v23.7c0 2.7 2.1 4.8 4.7 4.8h38.1c2.6 0 4.8-2.1 4.8-4.8zm-23.8 38.1c7.8 0 14.2-6.4 14.2-14.3 0-7.8-6.4-14.3-14.2-14.3-7.9 0-14.3 6.5-14.3 14.3 0 7.9 6.4 14.3 14.3 14.3zm195.2-9.5v-128.6h-5.7l-27.6 18.4v-23.8c-7.9-4.3-14.2-10.7-18.3-18.4h-119.8v110.4c5.5 2 9.5 7.2 9.5 13.4v28.6z"/>
				<path id="Layer" class="s0" d="m200 28.6h66.7v9.5h-66.7z"/>
				<path id="Layer" class="s0" d="m200 52.4h66.7v9.5h-66.7z"/>
			</g>
		</g>
	</g>
</svg>