<svg version="1.2" xmlns="http://www.w3.org/2000/svg" viewBox="0 0 1024 1024" width="1024" height="1024">
	<title>front-end-svg</title>
	<style>
		.s0 { fill: #000000 } 
	</style>
	<g id="SVGRepo_bgCarrier">
	</g>
	<g id="SVGRepo_tracerCarrier">
	</g>
	<filter id="f0">
		<feFlood flood-color="#ffffff" flood-opacity="1" />
		<feBlend mode="normal" in2="SourceGraphic"/>
		<feComposite in2="SourceAlpha" operator="in" />
	</filter>
	<g id="SVGRepo_iconCarrier" filter="url(#f0)">
		<path id="Layer" fill-rule="evenodd" class="s0" d="m1015.8 687.8h-1007.6q-1.6 0-3.1-0.6-1.5-0.6-2.6-1.7-1.1-1.1-1.7-2.6-0.6-1.5-0.6-3.1 0-1.6 0.6-3 0.6-1.5 1.7-2.6 1.1-1.2 2.6-1.8 1.5-0.6 3.1-0.6h1007.6q1.6 0 3.1 0.6 1.5 0.6 2.6 1.8 1.1 1.1 1.7 2.6 0.6 1.4 0.6 3 0 1.6-0.6 3.1-0.6 1.5-1.7 2.6-1.1 1.1-2.6 1.7-1.5 0.6-3.1 0.6zm-503.8 80c-17.6 0-32-14.4-32-32 0-17.7 14.4-32 32-32 17.6 0 32 14.3 32 32 0 17.6-14.4 32-32 32zm0-48c-8.8 0-16 7.2-16 16 0 8.8 7.2 16 16 16 8.8 0 16-7.2 16-16 0-8.8-7.2-16-16-16zm-135.9 255.9c-1.2 0-2.3-0.2-3.4-0.8-1.1-0.5-2-1.2-2.8-2.2-0.7-0.9-1.3-2-1.5-3.2-0.3-1.1-0.3-2.3-0.1-3.5l32-144c1-4.3 5.2-6.9 9.6-6q1.5 0.3 2.8 1.2 1.3 0.9 2.2 2.3 0.8 1.3 1.1 2.9 0.3 1.6-0.1 3.1l-32 144q-0.3 1.3-1 2.5-0.7 1.1-1.8 2-1 0.8-2.3 1.3-1.3 0.4-2.7 0.4zm271.8 0q-1.4 0-2.7-0.4-1.3-0.5-2.3-1.3-1.1-0.9-1.8-2-0.7-1.2-1-2.5l-32-144q-0.4-1.5-0.1-3.1 0.3-1.6 1.1-2.9 0.9-1.4 2.2-2.3 1.3-0.9 2.8-1.2c4.4-0.9 8.6 1.8 9.6 6l32 144c0.2 1.2 0.2 2.4 0 3.5-0.3 1.2-0.9 2.3-1.6 3.2-0.7 1-1.7 1.7-2.8 2.2-1.1 0.6-2.2 0.8-3.4 0.8z"/>
		<path id="Layer" fill-rule="evenodd" class="s0" d="m672 975.7h-319.9q-1.6 0-3.1-0.6-1.5-0.6-2.6-1.7-1.1-1.1-1.7-2.6-0.6-1.5-0.6-3.1 0-1.6 0.6-3 0.6-1.5 1.7-2.6 1.1-1.1 2.6-1.8 1.5-0.6 3.1-0.6h319.9q1.5 0 3 0.6 1.5 0.7 2.6 1.8 1.1 1.1 1.7 2.6 0.6 1.4 0.6 3 0 1.6-0.6 3.1-0.6 1.5-1.7 2.6-1.1 1.1-2.6 1.7-1.5 0.6-3 0.6zm295.9-335.6h-911.8q-1.6 0-3-0.6-1.5-0.6-2.6-1.8-1.1-1.1-1.8-2.6-0.6-1.4-0.6-3v-527.9q0-1.5 0.6-3 0.7-1.5 1.8-2.6 1.1-1.1 2.6-1.7 1.4-0.6 3-0.6h911.8c4.4 0 8 3.5 8 7.9v527.9q0 1.6-0.6 3-0.7 1.5-1.8 2.6-1.1 1.2-2.6 1.8-1.4 0.6-3 0.6zm-903.8-16h895.8v-511.9h-895.8z"/>
		<path id="Layer" fill-rule="evenodd" class="s0" d="m967.9 800h-911.8c-30.8 0-55.9-25.1-55.9-55.9v-639.9c0-30.8 25.1-55.9 55.9-55.9h911.8c30.8 0 55.9 25.1 55.9 55.9v639.9c0 30.8-25.1 55.9-55.9 55.9zm-911.8-735.7c-22 0-39.9 17.9-39.9 39.9v639.9c0 22 17.9 39.9 39.9 39.9h911.8c22 0 39.9-17.9 39.9-39.9v-639.9c0-22-17.9-39.9-39.9-39.9z"/>
		<path id="Layer" class="s0" d="m967.9 831.8h-911.8c-31.4 0-55.9-24.6-55.9-56v-32q0-1.6 0.6-3.1 0.6-1.4 1.7-2.6 1.1-1.1 2.6-1.7 1.5-0.6 3.1-0.6 1.5 0 3 0.6 1.5 0.6 2.6 1.7 1.1 1.2 1.7 2.6 0.7 1.5 0.7 3.1v32c0 22.4 17.5 40 39.9 40h911.8c22.4 0 40-17.6 40-40v-31.7q0-1.6 0.6-3.1 0.6-1.5 1.7-2.6 1.1-1.1 2.6-1.7 1.5-0.6 3.1-0.6 1.5 0 3 0.6 1.5 0.6 2.6 1.7 1.1 1.1 1.7 2.6 0.6 1.5 0.6 3.1v31.7c0 31.4-24.5 56-55.9 56zm-879.8-191.7q-1.6 0-3-0.6-1.5-0.6-2.6-1.8-1.1-1.1-1.8-2.6-0.6-1.4-0.6-3v-527.8q0-1.6 0.6-3.1 0.7-1.5 1.8-2.6 1.1-1.1 2.6-1.7 1.4-0.6 3-0.6 1.6 0 3.1 0.6 1.5 0.6 2.6 1.7 1.1 1.1 1.7 2.6 0.6 1.5 0.6 3.1v527.8q0 1.6-0.6 3-0.6 1.5-1.7 2.6-1.1 1.2-2.6 1.8-1.5 0.6-3.1 0.6z"/>
		<path id="Layer" class="s0" d="m72.1 160.2h-16c-4.4 0-8-3.5-8-8 0-4.4 3.6-8 8-8h16c4.5 0 8 3.6 8 8 0 4.5-3.5 8-8 8zm0 48h-16c-4.4 0-8-3.6-8-8 0-4.4 3.6-8 8-8h16c4.5 0 8 3.6 8 8 0 4.4-3.5 8-8 8zm0 48h-16c-4.4 0-8-3.6-8-8 0-4.4 3.6-8 8-8h16c4.5 0 8 3.6 8 8 0 4.4-3.5 8-8 8zm0 48h-16c-4.4 0-8-3.6-8-8 0-4.4 3.6-8 8-8h16c4.5 0 8 3.6 8 8 0 4.4-3.5 8-8 8zm0 48h-16c-4.4 0-8-3.6-8-8 0-4.4 3.6-8 8-8h16c4.5 0 8 3.6 8 8 0 4.4-3.5 8-8 8zm0 48h-16q-1.6 0-3-0.6-1.5-0.7-2.6-1.8-1.1-1.1-1.8-2.6-0.6-1.4-0.6-3 0-1.6 0.6-3.1 0.7-1.5 1.8-2.6 1.1-1.1 2.6-1.7 1.4-0.6 3-0.6h16q1.6 0 3.1 0.6 1.5 0.6 2.6 1.7 1.1 1.1 1.7 2.6 0.6 1.5 0.6 3.1 0 1.6-0.6 3-0.6 1.5-1.7 2.6-1.1 1.1-2.6 1.8-1.5 0.6-3.1 0.6zm0 47.9h-16q-1.6 0-3-0.6-1.5-0.6-2.6-1.7-1.1-1.1-1.8-2.6-0.6-1.5-0.6-3.1 0-1.5 0.6-3 0.7-1.5 1.8-2.6 1.1-1.1 2.6-1.7 1.4-0.6 3-0.7h16q1.6 0.1 3.1 0.7 1.5 0.6 2.6 1.7 1.1 1.1 1.7 2.6 0.6 1.5 0.6 3 0 1.6-0.6 3.1-0.6 1.5-1.7 2.6-1.1 1.1-2.6 1.7-1.5 0.6-3.1 0.6zm0 48h-16q-1.6 0-3-0.6-1.5-0.6-2.6-1.7-1.1-1.1-1.8-2.6-0.6-1.5-0.6-3.1 0-1.6 0.6-3 0.7-1.5 1.8-2.6 1.1-1.1 2.6-1.8 1.4-0.6 3-0.6h16q1.6 0 3.1 0.6 1.5 0.7 2.6 1.8 1.1 1.1 1.7 2.6 0.6 1.4 0.6 3 0 1.6-0.6 3.1-0.6 1.5-1.7 2.6-1.1 1.1-2.6 1.7-1.5 0.6-3.1 0.6zm0 48h-16q-1.6 0-3-0.6-1.5-0.6-2.6-1.7-1.1-1.2-1.8-2.6-0.6-1.5-0.6-3.1 0-1.6 0.6-3 0.7-1.5 1.8-2.6 1.1-1.2 2.6-1.8 1.4-0.6 3-0.6h16q1.6 0 3.1 0.6 1.5 0.6 2.6 1.8 1.1 1.1 1.7 2.6 0.6 1.4 0.6 3 0 1.6-0.6 3.1-0.6 1.4-1.7 2.6-1.1 1.1-2.6 1.7-1.5 0.6-3.1 0.6zm0 48h-16c-4.4 0-8-3.6-8-8 0-4.4 3.6-8 8-8h16c4.5 0 8 3.6 8 8 0 4.4-3.5 8-8 8zm128-431.9h-64c-4.4 0-8-3.5-8-8 0-4.4 3.6-8 8-8h64c4.4 0 8 3.6 8 8 0 4.5-3.6 8-8 8zm255.9 48h-191.9c-4.4 0-8-3.6-8-8 0-4.4 3.6-8 8-8h191.9c4.4 0 8 3.6 8 8 0 4.4-3.6 8-8 8zm-223.9 0h-80c-4.4 0-8-3.6-8-8 0-4.4 3.6-8 8-8h80c4.4 0 8 3.6 8 8 0 4.4-3.6 8-8 8zm223.9 48h-16c-4.4 0-8-3.6-8-8 0-4.4 3.6-8 8-8h16c4.4 0 8 3.6 8 8 0 4.4-3.6 8-8 8zm-48 0h-239.9c-4.4 0-8-3.6-8-8 0-4.4 3.6-8 8-8h239.9c4.5 0 8 3.6 8 8 0 4.4-3.5 8-8 8zm-191.9 96h-48c-4.4 0-8-3.6-8-8 0-4.4 3.6-8 8-8h48c4.4 0 8 3.6 8 8 0 4.4-3.6 8-8 8zm239.9 0h-207.9c-4.4 0-8-3.6-8-8 0-4.4 3.6-8 8-8h207.9c4.4 0 8 3.6 8 8 0 4.4-3.6 8-8 8zm0-48h-271.9c-4.4 0-8-3.6-8-8 0-4.4 3.6-8 8-8h271.9c4.4 0 8 3.6 8 8 0 4.4-3.6 8-8 8zm0 96h-64q-1.6 0-3-0.6-1.5-0.7-2.6-1.8-1.1-1.1-1.8-2.6-0.6-1.4-0.6-3 0-1.6 0.6-3.1 0.7-1.5 1.8-2.6 1.1-1.1 2.6-1.7 1.4-0.6 3-0.6h64q1.6 0 3.1 0.6 1.4 0.6 2.6 1.7 1.1 1.1 1.7 2.6 0.6 1.5 0.6 3.1 0 1.6-0.6 3-0.6 1.5-1.7 2.6-1.2 1.1-2.6 1.8-1.5 0.6-3.1 0.6zm-48 47.9h-255.9q-1.6 0-3.1-0.6-1.4-0.6-2.5-1.7-1.2-1.1-1.8-2.6-0.6-1.5-0.6-3.1 0-1.5 0.6-3 0.6-1.5 1.8-2.6 1.1-1.1 2.5-1.7 1.5-0.6 3.1-0.7h255.9q1.6 0.1 3.1 0.7 1.5 0.6 2.6 1.7 1.1 1.1 1.7 2.6 0.6 1.5 0.6 3 0 1.6-0.6 3.1-0.6 1.5-1.7 2.6-1.1 1.1-2.6 1.7-1.5 0.6-3.1 0.6zm-127.9 96h-128q-1.6 0-3-0.6-1.5-0.6-2.6-1.7-1.2-1.2-1.8-2.6-0.6-1.5-0.6-3.1 0-1.6 0.6-3 0.6-1.5 1.8-2.6 1.1-1.2 2.6-1.8 1.4-0.6 3-0.6h128q1.6 0 3 0.6 1.5 0.6 2.6 1.8 1.2 1.1 1.8 2.6 0.6 1.4 0.6 3 0 1.6-0.6 3.1-0.6 1.4-1.8 2.6-1.1 1.1-2.6 1.7-1.4 0.6-3 0.6zm175.9-48h-80q-1.5 0-3-0.6-1.5-0.6-2.6-1.7-1.1-1.1-1.7-2.6-0.7-1.5-0.7-3.1 0-1.6 0.7-3 0.6-1.5 1.7-2.6 1.1-1.1 2.6-1.8 1.5-0.6 3-0.6h80q1.6 0 3.1 0.6 1.4 0.7 2.6 1.8 1.1 1.1 1.7 2.6 0.6 1.4 0.6 3 0 1.6-0.6 3.1-0.6 1.5-1.7 2.6-1.2 1.1-2.6 1.7-1.5 0.6-3.1 0.6zm-111.9 0h-176q-1.6 0-3.1-0.6-1.4-0.6-2.6-1.7-1.1-1.1-1.7-2.6-0.6-1.5-0.6-3.1 0-1.6 0.6-3 0.6-1.5 1.7-2.6 1.2-1.1 2.6-1.8 1.5-0.6 3.1-0.6h176q1.5 0 3 0.6 1.5 0.7 2.6 1.8 1.1 1.1 1.7 2.6 0.6 1.4 0.6 3 0 1.6-0.6 3.1-0.6 1.5-1.7 2.6-1.1 1.1-2.6 1.7-1.5 0.6-3 0.6zm-144 96h-64c-4.4 0-8-3.6-8-8 0-4.4 3.6-8 8-8h64c4.4 0 8 3.6 8 8 0 4.4-3.6 8-8 8zm255.9-144h-16q-1.6 0-3-0.6-1.5-0.6-2.6-1.7-1.2-1.1-1.8-2.6-0.6-1.5-0.6-3.1 0-1.5 0.6-3 0.6-1.5 1.8-2.6 1.1-1.1 2.6-1.7 1.4-0.6 3-0.7h16q1.6 0.1 3.1 0.7 1.4 0.6 2.6 1.7 1.1 1.1 1.7 2.6 0.6 1.5 0.6 3 0 1.6-0.6 3.1-0.6 1.5-1.7 2.6-1.2 1.1-2.6 1.7-1.5 0.6-3.1 0.6zm-96-47.9h-191.9q-1.6 0-3.1-0.6-1.4-0.7-2.6-1.8-1.1-1.1-1.7-2.6-0.6-1.4-0.6-3 0-1.6 0.6-3.1 0.6-1.5 1.7-2.6 1.2-1.1 2.6-1.7 1.5-0.6 3.1-0.6h191.9q1.6 0 3.1 0.6 1.5 0.6 2.6 1.7 1.1 1.1 1.7 2.6 0.6 1.5 0.6 3.1 0 1.6-0.6 3-0.6 1.5-1.7 2.6-1.1 1.1-2.6 1.8-1.5 0.6-3.1 0.6z"/>
		<path id="Layer" class="s0" d="m512 640.1q-1.6 0-3.1-0.6-1.4-0.6-2.6-1.8-1.1-1.1-1.7-2.6-0.6-1.4-0.6-3v-527.9q0-1.5 0.6-3 0.6-1.5 1.7-2.6 1.2-1.1 2.6-1.7 1.5-0.6 3.1-0.6 1.6 0 3.1 0.6 1.4 0.6 2.6 1.7 1.1 1.1 1.7 2.6 0.6 1.5 0.6 3v527.9q0 1.6-0.6 3-0.6 1.5-1.7 2.6-1.2 1.2-2.6 1.8-1.5 0.6-3.1 0.6z"/>
		<path id="Layer" class="s0" d="m903.9 544.1q-1 0-2-0.2-1-0.3-1.8-0.8-0.9-0.4-1.6-1.1-0.8-0.7-1.3-1.5l-97.3-149.7-97.3 149.7c-2.3 3.7-7.3 4.7-11 2.3q-1.3-0.8-2.2-2.1-0.9-1.4-1.3-2.9-0.3-1.6 0-3.1 0.3-1.6 1.1-2.9l104-160c2.9-4.5 10.5-4.5 13.4 0l104 160q0.8 1.3 1.1 2.9 0.3 1.5 0 3.1-0.3 1.5-1.2 2.9-0.9 1.3-2.3 2.1c-1.3 0.9-2.8 1.3-4.3 1.3z"/>
		<path id="Layer" fill-rule="evenodd" class="s0" d="m632 544.1c-1.5 0-2.9-0.4-4.1-1.1-1.3-0.8-2.3-1.8-3-3.1-0.7-1.3-1-2.7-0.9-4.2 0-1.4 0.5-2.8 1.3-4l64-95.9c0.7-1.1 1.7-2 2.9-2.6 1.1-0.6 2.4-1 3.7-1 1.4 0 2.7 0.4 3.8 1 1.2 0.6 2.2 1.5 2.9 2.6l31.5 47.3q0.9 1.3 1.2 2.8 0.3 1.6 0 3.2-0.3 1.5-1.2 2.8-0.9 1.4-2.2 2.2c-3.7 2.5-8.6 1.5-11.1-2.2l-24.9-37.3-57.3 86q-0.5 0.8-1.3 1.4-0.7 0.7-1.6 1.2-0.8 0.4-1.8 0.7-0.9 0.2-1.9 0.2zm0-112c-22.1 0-40-17.9-40-39.9 0-22.1 17.9-40 40-40 22 0 40 17.9 40 40 0 22-18 39.9-40 39.9zm0-63.9c-13.3 0-24 10.7-24 24 0 13.2 10.7 24 24 24 13.2 0 24-10.8 24-24 0-13.3-10.8-24-24-24z"/>
		<path id="Layer" fill-rule="evenodd" class="s0" d="m919.9 544.1h-351.9c-4.4 0-8-3.6-8-8v-207.9q0-1.6 0.6-3.1 0.6-1.4 1.7-2.6 1.2-1.1 2.6-1.7 1.5-0.6 3.1-0.6h351.9q1.6 0 3 0.6 1.5 0.6 2.6 1.7 1.2 1.2 1.8 2.6 0.6 1.5 0.6 3.1v207.9q0 1.6-0.6 3.1-0.6 1.4-1.8 2.6-1.1 1.1-2.6 1.7-1.4 0.6-3 0.6zm-343.9-16h335.9v-191.9h-335.9z"/>
		<path id="Layer" class="s0" d="m919.9 160.2h-351.9c-4.4 0-8-3.5-8-8 0-4.4 3.6-8 8-8h351.9c4.4 0 8 3.6 8 8 0 4.5-3.6 8-8 8z"/>
		<path id="Layer" class="s0" d="m919.9 288.2q-1.6 0-3.1-0.6-1.5-0.6-2.6-1.7-1.1-1.2-1.7-2.6-0.6-1.5-0.6-3.1v-128c0-4.4 3.6-8 8-8 4.4 0 8 3.6 8 8v128q0 1.6-0.6 3.1-0.6 1.4-1.8 2.6-1.1 1.1-2.6 1.7-1.4 0.6-3 0.6z"/>
		<path id="Layer" class="s0" d="m919.9 288.2h-351.9c-4.4 0-8-3.6-8-8 0-4.4 3.6-8 8-8h351.9c4.4 0 8 3.6 8 8 0 4.4-3.6 8-8 8z"/>
		<path id="Layer" class="s0" d="m871.9 224.2h-303.9c-4.4 0-8-3.6-8-8 0-4.4 3.6-8 8-8h303.9c4.4 0 8 3.6 8 8 0 4.4-3.6 8-8 8z"/>
		<path id="Layer" class="s0" d="m919.9 592.1h-351.9c-4.4 0-8-3.6-8-8 0-4.4 3.6-8 8-8h351.9c4.4 0 8 3.6 8 8 0 4.4-3.6 8-8 8z"/>
	</g>
</svg>