<svg version="1.2" xmlns="http://www.w3.org/2000/svg" viewBox="0 0 397 397" width="397" height="397">
	<title>responsive-design-svg</title>
	<style>
		.s0 { fill: #000000 } 
	</style>
	<g id="SVGRepo_bgCarrier">
	</g>
	<g id="SVGRepo_tracerCarrier">
	</g>
	<filter id="f0">
		<feFlood flood-color="#ffffff" flood-opacity="1" />
		<feBlend mode="normal" in2="SourceGraphic"/>
		<feComposite in2="SourceAlpha" operator="in" />
	</filter>
	<g id="SVGRepo_iconCarrier" filter="url(#f0)">
		<g id="Layer">
			<path id="Layer" class="s0" d="m304.4 330.9h-43.2c-1.6 0-2.8-1.3-2.8-2.8v-10.6c0-1.5-1.3-2.8-2.9-2.8h-60.4c-1.6 0-2.9 1.3-2.9 2.8v10.6c0 1.5-1.3 2.8-2.8 2.8h-32.5c-1.6 0-2.8 1.3-2.8 2.8v12.2c0 1.6 1.2 2.8 2.8 2.8h147.5c1.6 0 2.9-1.2 2.9-2.8v-12.2c0-1.5-1.3-2.8-2.9-2.8z"/>
			<g id="Layer">
				<path id="Layer" fill-rule="evenodd" class="s0" d="m396.5 65.8v214.3c0 10.8-8.7 19.5-19.5 19.5h-214.9c0 0-8 0-8-10 0-5.9 0-17.8 0-23.8 0-10 7.8-10 7.8-10h219.9v-190c0-2.5-2.2-4.7-4.8-4.7h-308.4c-2.5 0-4.7 2.2-4.7 4.7 0 0 0 37 0 50.7 0 6.8 0.8 7.8-3 7.8-2.7 0-5.3 0-7.7 0-4.5 0-4-1-4-7.7 0-13.7 0-50.8 0-50.8 0-10.7 8.7-19.4 19.4-19.4h308.4c10.8 0 19.5 8.7 19.5 19.4zm-164.9 208.2c0-4.8-3.9-8.7-8.8-8.7-4.8 0-8.7 3.9-8.7 8.7 0 4.9 3.9 8.8 8.7 8.8 4.9 0 8.8-3.9 8.8-8.8z"/>
				<path id="Layer" fill-rule="evenodd" class="s0" d="m136.7 154.2v183.4c0 6.9-5.7 12.5-12.6 12.5h-111.5c-7 0-12.6-5.6-12.6-12.5v-183.4c0-6.9 5.6-12.6 12.6-12.6h111.5c6.9 0 12.6 5.7 12.6 12.6zm-84.5 2.6c0 1.3 1.1 2.4 2.4 2.4h27.5c1.3 0 2.4-1.1 2.4-2.4 0-1.3-1.1-2.4-2.4-2.4h-27.5c-1.3 0-2.4 1.1-2.4 2.4zm22.5 178c0-3.6-2.9-6.5-6.5-6.5-3.6 0-6.5 2.9-6.5 6.5 0 3.6 2.9 6.5 6.5 6.5 3.6 0 6.5-2.9 6.5-6.5zm51.2-165c0-1.6-1.3-3-3-3h-109.1c-1.7 0-3 1.3-3 3v152.4c0 1.7 1.3 3 3 3h109.1c1.7 0 3-1.3 3-3z"/>
			</g>
		</g>
	</g>
</svg>